<mxfile host="app.diagrams.net" modified="2021-09-26T02:58:17.343Z" agent="5.0 (Windows NT 6.1; Win64; x64) AppleWebKit/537.36 (KHTML, like Gecko) Chrome/73.0.3683.86 Safari/537.36" etag="s15hMVlryPfVS0XaU7gb" version="15.3.3" type="github">
  <diagram id="Sn4QyEJCFZzKYPF1E8XX" name="Page-1">
    <mxGraphModel dx="1102" dy="533" grid="1" gridSize="10" guides="1" tooltips="1" connect="1" arrows="1" fold="1" page="1" pageScale="1" pageWidth="827" pageHeight="1169" math="0" shadow="0">
      <root>
        <mxCell id="0" />
        <mxCell id="1" parent="0" />
        <mxCell id="DOfP-JRQUs06uI1W3-FC-1" value="" style="whiteSpace=wrap;html=1;aspect=fixed;hachureGap=4;pointerEvents=0;fillColor=#fad9d5;strokeColor=#ae4132;" parent="1" vertex="1">
          <mxGeometry x="40" y="40" width="790" height="790" as="geometry" />
        </mxCell>
        <mxCell id="DOfP-JRQUs06uI1W3-FC-3" value="" style="rounded=0;whiteSpace=wrap;html=1;hachureGap=4;pointerEvents=0;fillColor=#e1d5e7;strokeColor=#9673a6;" parent="1" vertex="1">
          <mxGeometry x="50" y="60" width="620" height="240" as="geometry" />
        </mxCell>
        <mxCell id="DOfP-JRQUs06uI1W3-FC-4" value="" style="rounded=0;whiteSpace=wrap;html=1;hachureGap=4;pointerEvents=0;fillColor=#fff2cc;strokeColor=#d6b656;" parent="1" vertex="1">
          <mxGeometry x="50" y="310" width="620" height="360" as="geometry" />
        </mxCell>
        <mxCell id="DOfP-JRQUs06uI1W3-FC-5" value="" style="rounded=0;whiteSpace=wrap;html=1;hachureGap=4;pointerEvents=0;fillColor=#b0e3e6;strokeColor=#0e8088;" parent="1" vertex="1">
          <mxGeometry x="50" y="680" width="620" height="70" as="geometry" />
        </mxCell>
        <mxCell id="DOfP-JRQUs06uI1W3-FC-6" value="" style="rounded=0;whiteSpace=wrap;html=1;hachureGap=4;pointerEvents=0;fillColor=#dae8fc;strokeColor=#6c8ebf;" parent="1" vertex="1">
          <mxGeometry x="50" y="760" width="620" height="60" as="geometry" />
        </mxCell>
        <mxCell id="DOfP-JRQUs06uI1W3-FC-8" value="" style="rounded=0;whiteSpace=wrap;html=1;hachureGap=4;pointerEvents=0;fillColor=#f8cecc;strokeColor=#b85450;" parent="1" vertex="1">
          <mxGeometry x="690" y="60" width="100" height="760" as="geometry" />
        </mxCell>
        <mxCell id="DOfP-JRQUs06uI1W3-FC-9" value="" style="rounded=0;whiteSpace=wrap;html=1;hachureGap=4;pointerEvents=0;fillColor=#d5e8d4;strokeColor=#82b366;" parent="1" vertex="1">
          <mxGeometry x="90" y="320" width="280" height="180" as="geometry" />
        </mxCell>
        <mxCell id="DOfP-JRQUs06uI1W3-FC-10" value="" style="rounded=0;whiteSpace=wrap;html=1;hachureGap=4;pointerEvents=0;fillColor=#d5e8d4;strokeColor=#82b366;" parent="1" vertex="1">
          <mxGeometry x="390" y="320" width="270" height="180" as="geometry" />
        </mxCell>
        <mxCell id="DOfP-JRQUs06uI1W3-FC-11" value="" style="rounded=0;whiteSpace=wrap;html=1;hachureGap=4;pointerEvents=0;fillColor=#CCFFE6;strokeColor=#82b366;" parent="1" vertex="1">
          <mxGeometry x="90" y="520" width="570" height="60" as="geometry" />
        </mxCell>
        <mxCell id="DOfP-JRQUs06uI1W3-FC-12" value="" style="rounded=0;whiteSpace=wrap;html=1;hachureGap=4;pointerEvents=0;fillColor=#d0cee2;strokeColor=#56517e;" parent="1" vertex="1">
          <mxGeometry x="90" y="600" width="570" height="60" as="geometry" />
        </mxCell>
        <mxCell id="DOfP-JRQUs06uI1W3-FC-13" value="安全防护体系" style="text;html=1;strokeColor=none;fillColor=none;align=center;verticalAlign=middle;whiteSpace=wrap;rounded=0;hachureGap=4;pointerEvents=0;fontSize=11;fontStyle=1" parent="1" vertex="1">
          <mxGeometry x="700" y="80" width="80" height="20" as="geometry" />
        </mxCell>
        <mxCell id="DOfP-JRQUs06uI1W3-FC-15" value="&lt;b&gt;代码安全&lt;/b&gt;" style="rounded=0;whiteSpace=wrap;html=1;hachureGap=4;pointerEvents=0;fontSize=11;" parent="1" vertex="1">
          <mxGeometry x="700" y="130" width="80" height="30" as="geometry" />
        </mxCell>
        <mxCell id="DOfP-JRQUs06uI1W3-FC-16" value="&lt;b&gt;应用安全&lt;/b&gt;" style="rounded=0;whiteSpace=wrap;html=1;hachureGap=4;pointerEvents=0;fontSize=11;" parent="1" vertex="1">
          <mxGeometry x="700" y="210" width="80" height="30" as="geometry" />
        </mxCell>
        <mxCell id="DOfP-JRQUs06uI1W3-FC-17" value="&lt;b&gt;中台安全&lt;/b&gt;" style="rounded=0;whiteSpace=wrap;html=1;hachureGap=4;pointerEvents=0;fontSize=11;" parent="1" vertex="1">
          <mxGeometry x="700" y="290" width="80" height="30" as="geometry" />
        </mxCell>
        <mxCell id="DOfP-JRQUs06uI1W3-FC-18" value="&lt;b&gt;数据安全&lt;/b&gt;" style="rounded=0;whiteSpace=wrap;html=1;hachureGap=4;pointerEvents=0;fontSize=11;" parent="1" vertex="1">
          <mxGeometry x="700" y="370" width="80" height="30" as="geometry" />
        </mxCell>
        <mxCell id="DOfP-JRQUs06uI1W3-FC-20" value="&lt;b&gt;无线安全&lt;/b&gt;" style="rounded=0;whiteSpace=wrap;html=1;hachureGap=4;pointerEvents=0;fontSize=11;" parent="1" vertex="1">
          <mxGeometry x="700" y="450" width="80" height="30" as="geometry" />
        </mxCell>
        <mxCell id="DOfP-JRQUs06uI1W3-FC-21" value="&lt;b&gt;边界安全&lt;/b&gt;" style="rounded=0;whiteSpace=wrap;html=1;hachureGap=4;pointerEvents=0;fontSize=11;" parent="1" vertex="1">
          <mxGeometry x="700" y="530" width="80" height="30" as="geometry" />
        </mxCell>
        <mxCell id="DOfP-JRQUs06uI1W3-FC-22" value="&lt;b&gt;终端安全&lt;/b&gt;" style="rounded=0;whiteSpace=wrap;html=1;hachureGap=4;pointerEvents=0;fontSize=11;" parent="1" vertex="1">
          <mxGeometry x="700" y="610" width="80" height="30" as="geometry" />
        </mxCell>
        <mxCell id="DOfP-JRQUs06uI1W3-FC-23" value="&lt;b&gt;固件安全&lt;/b&gt;" style="rounded=0;whiteSpace=wrap;html=1;hachureGap=4;pointerEvents=0;fontSize=11;" parent="1" vertex="1">
          <mxGeometry x="700" y="690" width="80" height="30" as="geometry" />
        </mxCell>
        <mxCell id="DOfP-JRQUs06uI1W3-FC-24" value="&lt;b&gt;安全运维&lt;/b&gt;" style="rounded=0;whiteSpace=wrap;html=1;hachureGap=4;pointerEvents=0;fontSize=11;" parent="1" vertex="1">
          <mxGeometry x="700" y="770" width="80" height="30" as="geometry" />
        </mxCell>
        <mxCell id="DOfP-JRQUs06uI1W3-FC-28" value="应&lt;br&gt;用&lt;br&gt;层&lt;br&gt;&lt;br&gt;" style="text;html=1;strokeColor=none;fillColor=none;align=center;verticalAlign=middle;whiteSpace=wrap;rounded=0;hachureGap=4;pointerEvents=0;fontSize=11;fontStyle=1" parent="1" vertex="1">
          <mxGeometry x="60" y="100" width="30" height="160" as="geometry" />
        </mxCell>
        <mxCell id="-LZOTVDOO-5ZrNgNkCKs-1" value="平&lt;br&gt;台&lt;br&gt;层" style="text;html=1;strokeColor=none;fillColor=none;align=center;verticalAlign=middle;whiteSpace=wrap;rounded=0;hachureGap=4;pointerEvents=0;fontSize=11;fontStyle=1" vertex="1" parent="1">
          <mxGeometry x="50" y="410" width="30" height="160" as="geometry" />
        </mxCell>
        <mxCell id="-LZOTVDOO-5ZrNgNkCKs-2" value="&lt;b&gt;网络层&lt;/b&gt;" style="text;html=1;strokeColor=none;fillColor=none;align=center;verticalAlign=middle;whiteSpace=wrap;rounded=0;hachureGap=4;pointerEvents=0;fontSize=11;" vertex="1" parent="1">
          <mxGeometry x="55" y="690" width="20" height="50" as="geometry" />
        </mxCell>
        <mxCell id="-LZOTVDOO-5ZrNgNkCKs-3" value="&lt;b&gt;感知层&lt;/b&gt;" style="text;html=1;strokeColor=none;fillColor=none;align=center;verticalAlign=middle;whiteSpace=wrap;rounded=0;hachureGap=4;pointerEvents=0;fontSize=11;" vertex="1" parent="1">
          <mxGeometry x="55" y="765" width="20" height="50" as="geometry" />
        </mxCell>
        <mxCell id="-LZOTVDOO-5ZrNgNkCKs-4" value="主机设备" style="rounded=0;whiteSpace=wrap;html=1;hachureGap=4;pointerEvents=0;fontSize=11;" vertex="1" parent="1">
          <mxGeometry x="310" y="775" width="120" height="30" as="geometry" />
        </mxCell>
        <mxCell id="-LZOTVDOO-5ZrNgNkCKs-5" value="接入网" style="rounded=0;whiteSpace=wrap;html=1;hachureGap=4;pointerEvents=0;fontSize=11;" vertex="1" parent="1">
          <mxGeometry x="110" y="700" width="120" height="30" as="geometry" />
        </mxCell>
        <mxCell id="-LZOTVDOO-5ZrNgNkCKs-6" value="骨干网" style="rounded=0;whiteSpace=wrap;html=1;hachureGap=4;pointerEvents=0;fontSize=11;" vertex="1" parent="1">
          <mxGeometry x="310" y="700" width="120" height="30" as="geometry" />
        </mxCell>
        <mxCell id="-LZOTVDOO-5ZrNgNkCKs-7" value="支撑网" style="rounded=0;whiteSpace=wrap;html=1;hachureGap=4;pointerEvents=0;fontSize=11;" vertex="1" parent="1">
          <mxGeometry x="510" y="700" width="120" height="30" as="geometry" />
        </mxCell>
        <mxCell id="-LZOTVDOO-5ZrNgNkCKs-8" value="容器管理" style="rounded=0;whiteSpace=wrap;html=1;hachureGap=4;pointerEvents=0;fontSize=11;" vertex="1" parent="1">
          <mxGeometry x="180" y="535" width="100" height="30" as="geometry" />
        </mxCell>
        <mxCell id="-LZOTVDOO-5ZrNgNkCKs-9" value="&lt;b&gt;&lt;font style=&quot;font-size: 12px&quot;&gt;云平台服务&lt;/font&gt;&lt;/b&gt;" style="text;html=1;strokeColor=none;fillColor=none;align=center;verticalAlign=middle;whiteSpace=wrap;rounded=0;hachureGap=4;pointerEvents=0;fontSize=12;" vertex="1" parent="1">
          <mxGeometry x="100" y="540" width="70" height="20" as="geometry" />
        </mxCell>
        <mxCell id="-LZOTVDOO-5ZrNgNkCKs-10" value="&lt;b&gt;云基础设施&lt;/b&gt;" style="text;html=1;strokeColor=none;fillColor=none;align=center;verticalAlign=middle;whiteSpace=wrap;rounded=0;hachureGap=4;pointerEvents=0;fontSize=11;" vertex="1" parent="1">
          <mxGeometry x="100" y="620" width="70" height="20" as="geometry" />
        </mxCell>
        <mxCell id="-LZOTVDOO-5ZrNgNkCKs-11" value="数据库" style="rounded=0;whiteSpace=wrap;html=1;hachureGap=4;pointerEvents=0;fontSize=12;" vertex="1" parent="1">
          <mxGeometry x="307" y="535" width="93" height="30" as="geometry" />
        </mxCell>
        <mxCell id="-LZOTVDOO-5ZrNgNkCKs-12" value="微服务管理" style="rounded=0;whiteSpace=wrap;html=1;hachureGap=4;pointerEvents=0;fontSize=12;" vertex="1" parent="1">
          <mxGeometry x="430" y="535" width="96.5" height="30" as="geometry" />
        </mxCell>
        <mxCell id="-LZOTVDOO-5ZrNgNkCKs-13" value="中间件" style="rounded=0;whiteSpace=wrap;html=1;hachureGap=4;pointerEvents=0;fontSize=12;" vertex="1" parent="1">
          <mxGeometry x="560" y="535" width="80" height="30" as="geometry" />
        </mxCell>
        <mxCell id="-LZOTVDOO-5ZrNgNkCKs-14" value="计算虚拟化" style="rounded=0;whiteSpace=wrap;html=1;hachureGap=4;pointerEvents=0;fontSize=12;" vertex="1" parent="1">
          <mxGeometry x="180" y="615" width="120" height="30" as="geometry" />
        </mxCell>
        <mxCell id="-LZOTVDOO-5ZrNgNkCKs-15" value="存储虚拟化" style="rounded=0;whiteSpace=wrap;html=1;hachureGap=4;pointerEvents=0;fontSize=12;" vertex="1" parent="1">
          <mxGeometry x="354" y="615" width="120" height="30" as="geometry" />
        </mxCell>
        <mxCell id="-LZOTVDOO-5ZrNgNkCKs-16" value="网络虚拟化" style="rounded=0;whiteSpace=wrap;html=1;hachureGap=4;pointerEvents=0;fontSize=12;" vertex="1" parent="1">
          <mxGeometry x="520" y="615" width="120" height="30" as="geometry" />
        </mxCell>
        <mxCell id="-LZOTVDOO-5ZrNgNkCKs-17" value="&lt;b&gt;共享微服务&lt;/b&gt;" style="rounded=0;whiteSpace=wrap;html=1;hachureGap=4;pointerEvents=0;fontSize=12;strokeColor=none;" vertex="1" parent="1">
          <mxGeometry x="110" y="330" width="250" height="20" as="geometry" />
        </mxCell>
        <mxCell id="-LZOTVDOO-5ZrNgNkCKs-18" value="&lt;b&gt;数据共享&lt;/b&gt;服务" style="rounded=0;whiteSpace=wrap;html=1;hachureGap=4;pointerEvents=0;fontSize=12;dashed=1;dashPattern=1 1;strokeColor=none;" vertex="1" parent="1">
          <mxGeometry x="410" y="330" width="240" height="20" as="geometry" />
        </mxCell>
        <mxCell id="-LZOTVDOO-5ZrNgNkCKs-19" value="&lt;span style=&quot;font-size: 14px&quot;&gt;&lt;b&gt;数&lt;br&gt;据&lt;br&gt;中&lt;br&gt;台&lt;/b&gt;&lt;/span&gt;" style="text;html=1;strokeColor=none;fillColor=none;align=center;verticalAlign=middle;whiteSpace=wrap;rounded=0;dashed=1;dashPattern=1 1;hachureGap=4;pointerEvents=0;fontSize=12;" vertex="1" parent="1">
          <mxGeometry x="380" y="370" width="40" height="95" as="geometry" />
        </mxCell>
        <mxCell id="-LZOTVDOO-5ZrNgNkCKs-20" value="&lt;font style=&quot;font-size: 14px&quot;&gt;&lt;b&gt;业&lt;br&gt;务&lt;/b&gt;&lt;br&gt;&lt;b&gt;中&lt;br&gt;台&lt;/b&gt;&lt;/font&gt;" style="text;html=1;strokeColor=none;fillColor=none;align=center;verticalAlign=middle;whiteSpace=wrap;rounded=0;dashed=1;dashPattern=1 1;hachureGap=4;pointerEvents=0;fontSize=12;" vertex="1" parent="1">
          <mxGeometry x="90" y="370" width="20" height="95" as="geometry" />
        </mxCell>
        <mxCell id="-LZOTVDOO-5ZrNgNkCKs-21" value="" style="rounded=0;whiteSpace=wrap;html=1;dashed=1;dashPattern=1 1;hachureGap=4;pointerEvents=0;fontSize=12;" vertex="1" parent="1">
          <mxGeometry x="110" y="360" width="250" height="130" as="geometry" />
        </mxCell>
        <mxCell id="-LZOTVDOO-5ZrNgNkCKs-24" value="" style="rounded=0;whiteSpace=wrap;html=1;dashed=1;dashPattern=1 1;hachureGap=4;pointerEvents=0;fontSize=12;" vertex="1" parent="1">
          <mxGeometry x="410" y="360" width="240" height="130" as="geometry" />
        </mxCell>
        <mxCell id="-LZOTVDOO-5ZrNgNkCKs-25" value="工作流" style="rounded=0;whiteSpace=wrap;html=1;dashed=1;dashPattern=1 1;hachureGap=4;pointerEvents=0;fontSize=12;" vertex="1" parent="1">
          <mxGeometry x="120" y="385" width="100" height="25" as="geometry" />
        </mxCell>
        <mxCell id="-LZOTVDOO-5ZrNgNkCKs-29" value="&lt;b&gt;基础服务&lt;/b&gt;" style="text;html=1;strokeColor=none;fillColor=none;align=center;verticalAlign=middle;whiteSpace=wrap;rounded=0;dashed=1;dashPattern=1 1;hachureGap=4;pointerEvents=0;fontSize=12;" vertex="1" parent="1">
          <mxGeometry x="180" y="365" width="110" height="20" as="geometry" />
        </mxCell>
        <mxCell id="-LZOTVDOO-5ZrNgNkCKs-37" value="短信/邮件" style="rounded=0;whiteSpace=wrap;html=1;dashed=1;dashPattern=1 1;hachureGap=4;pointerEvents=0;fontSize=12;" vertex="1" parent="1">
          <mxGeometry x="240" y="385" width="100" height="25" as="geometry" />
        </mxCell>
        <mxCell id="-LZOTVDOO-5ZrNgNkCKs-38" value="附件管理" style="rounded=0;whiteSpace=wrap;html=1;dashed=1;dashPattern=1 1;hachureGap=4;pointerEvents=0;fontSize=12;" vertex="1" parent="1">
          <mxGeometry x="120" y="422.5" width="100" height="25" as="geometry" />
        </mxCell>
        <mxCell id="-LZOTVDOO-5ZrNgNkCKs-39" value="地图服务" style="rounded=0;whiteSpace=wrap;html=1;dashed=1;dashPattern=1 1;hachureGap=4;pointerEvents=0;fontSize=12;" vertex="1" parent="1">
          <mxGeometry x="120" y="455" width="100" height="25" as="geometry" />
        </mxCell>
        <mxCell id="-LZOTVDOO-5ZrNgNkCKs-40" value="权限管理" style="rounded=0;whiteSpace=wrap;html=1;dashed=1;dashPattern=1 1;hachureGap=4;pointerEvents=0;fontSize=12;" vertex="1" parent="1">
          <mxGeometry x="240" y="422.5" width="100" height="25" as="geometry" />
        </mxCell>
        <mxCell id="-LZOTVDOO-5ZrNgNkCKs-41" value="任务调度" style="rounded=0;whiteSpace=wrap;html=1;dashed=1;dashPattern=1 1;hachureGap=4;pointerEvents=0;fontSize=12;" vertex="1" parent="1">
          <mxGeometry x="240" y="455" width="100" height="25" as="geometry" />
        </mxCell>
        <mxCell id="-LZOTVDOO-5ZrNgNkCKs-42" value="&lt;b&gt;计算与存储&lt;/b&gt;" style="text;html=1;strokeColor=none;fillColor=none;align=center;verticalAlign=middle;whiteSpace=wrap;rounded=0;shadow=1;dashed=1;dashPattern=1 1;hachureGap=4;pointerEvents=0;fontSize=12;" vertex="1" parent="1">
          <mxGeometry x="420" y="370" width="80" height="20" as="geometry" />
        </mxCell>
        <mxCell id="-LZOTVDOO-5ZrNgNkCKs-43" value="&lt;b&gt;数据采集管理&lt;/b&gt;" style="text;html=1;strokeColor=none;fillColor=none;align=center;verticalAlign=middle;whiteSpace=wrap;rounded=0;shadow=1;dashed=1;dashPattern=1 1;hachureGap=4;pointerEvents=0;fontSize=12;" vertex="1" parent="1">
          <mxGeometry x="527" y="370" width="103" height="20" as="geometry" />
        </mxCell>
        <mxCell id="-LZOTVDOO-5ZrNgNkCKs-44" value="实时计算" style="rounded=0;whiteSpace=wrap;html=1;dashed=1;dashPattern=1 1;hachureGap=4;pointerEvents=0;fontSize=12;" vertex="1" parent="1">
          <mxGeometry x="414" y="390" width="100" height="25" as="geometry" />
        </mxCell>
        <mxCell id="-LZOTVDOO-5ZrNgNkCKs-46" value="离线计算" style="rounded=0;whiteSpace=wrap;html=1;dashed=1;dashPattern=1 1;hachureGap=4;pointerEvents=0;fontSize=12;" vertex="1" parent="1">
          <mxGeometry x="414" y="425" width="100" height="25" as="geometry" />
        </mxCell>
        <mxCell id="-LZOTVDOO-5ZrNgNkCKs-47" value="分布式文件系统" style="rounded=0;whiteSpace=wrap;html=1;dashed=1;dashPattern=1 1;hachureGap=4;pointerEvents=0;fontSize=12;" vertex="1" parent="1">
          <mxGeometry x="414" y="455" width="100" height="25" as="geometry" />
        </mxCell>
        <mxCell id="-LZOTVDOO-5ZrNgNkCKs-48" value="数据分析与优化" style="rounded=0;whiteSpace=wrap;html=1;dashed=1;dashPattern=1 1;hachureGap=4;pointerEvents=0;fontSize=12;" vertex="1" parent="1">
          <mxGeometry x="530" y="390" width="110" height="25" as="geometry" />
        </mxCell>
        <mxCell id="-LZOTVDOO-5ZrNgNkCKs-49" value="采集监控" style="rounded=0;whiteSpace=wrap;html=1;dashed=1;dashPattern=1 1;hachureGap=4;pointerEvents=0;fontSize=12;" vertex="1" parent="1">
          <mxGeometry x="530" y="430" width="110" height="20" as="geometry" />
        </mxCell>
        <mxCell id="-LZOTVDOO-5ZrNgNkCKs-50" value="采集功能与策略配置" style="rounded=0;whiteSpace=wrap;html=1;dashed=1;dashPattern=1 1;hachureGap=4;pointerEvents=0;fontSize=12;" vertex="1" parent="1">
          <mxGeometry x="530" y="455" width="110" height="25" as="geometry" />
        </mxCell>
        <mxCell id="-LZOTVDOO-5ZrNgNkCKs-51" value="10kV及以下配电网规划及后评价应用" style="text;html=1;strokeColor=none;fillColor=none;align=center;verticalAlign=middle;whiteSpace=wrap;rounded=0;shadow=1;dashed=1;dashPattern=1 1;hachureGap=4;pointerEvents=0;fontSize=14;fontStyle=1" vertex="1" parent="1">
          <mxGeometry x="255" y="60" width="255" height="40" as="geometry" />
        </mxCell>
        <mxCell id="-LZOTVDOO-5ZrNgNkCKs-52" value="" style="rounded=0;whiteSpace=wrap;html=1;shadow=1;dashed=1;hachureGap=4;pointerEvents=0;fontSize=14;fillColor=none;" vertex="1" parent="1">
          <mxGeometry x="100" y="90" width="230" height="200" as="geometry" />
        </mxCell>
        <mxCell id="-LZOTVDOO-5ZrNgNkCKs-53" value="" style="rounded=0;whiteSpace=wrap;html=1;shadow=1;dashed=1;hachureGap=4;pointerEvents=0;fontSize=14;fillColor=none;" vertex="1" parent="1">
          <mxGeometry x="400" y="90" width="214" height="200" as="geometry" />
        </mxCell>
        <mxCell id="-LZOTVDOO-5ZrNgNkCKs-54" value="规划管理服务" style="text;html=1;strokeColor=none;fillColor=none;align=center;verticalAlign=middle;whiteSpace=wrap;rounded=0;shadow=1;dashed=1;hachureGap=4;pointerEvents=0;fontSize=14;" vertex="1" parent="1">
          <mxGeometry x="160" y="100" width="100" height="20" as="geometry" />
        </mxCell>
        <mxCell id="-LZOTVDOO-5ZrNgNkCKs-56" value="规划大屏展示" style="text;html=1;strokeColor=none;fillColor=none;align=center;verticalAlign=middle;whiteSpace=wrap;rounded=0;shadow=1;dashed=1;hachureGap=4;pointerEvents=0;fontSize=14;" vertex="1" parent="1">
          <mxGeometry x="460" y="100" width="110" height="20" as="geometry" />
        </mxCell>
        <mxCell id="-LZOTVDOO-5ZrNgNkCKs-58" value="工作流" style="rounded=0;whiteSpace=wrap;html=1;dashed=1;dashPattern=1 1;hachureGap=4;pointerEvents=0;fontSize=12;" vertex="1" parent="1">
          <mxGeometry x="160" y="130" width="100" height="25" as="geometry" />
        </mxCell>
        <mxCell id="-LZOTVDOO-5ZrNgNkCKs-59" value="工作流" style="rounded=0;whiteSpace=wrap;html=1;dashed=1;dashPattern=1 1;hachureGap=4;pointerEvents=0;fontSize=12;" vertex="1" parent="1">
          <mxGeometry x="160" y="160" width="100" height="25" as="geometry" />
        </mxCell>
        <mxCell id="-LZOTVDOO-5ZrNgNkCKs-60" value="工作流" style="rounded=0;whiteSpace=wrap;html=1;dashed=1;dashPattern=1 1;hachureGap=4;pointerEvents=0;fontSize=12;" vertex="1" parent="1">
          <mxGeometry x="160" y="192.5" width="100" height="25" as="geometry" />
        </mxCell>
        <mxCell id="-LZOTVDOO-5ZrNgNkCKs-61" value="工作流" style="rounded=0;whiteSpace=wrap;html=1;dashed=1;dashPattern=1 1;hachureGap=4;pointerEvents=0;fontSize=12;" vertex="1" parent="1">
          <mxGeometry x="160" y="225" width="100" height="25" as="geometry" />
        </mxCell>
        <mxCell id="-LZOTVDOO-5ZrNgNkCKs-62" value="诊断分析" style="rounded=0;whiteSpace=wrap;html=1;dashed=1;dashPattern=1 1;hachureGap=4;pointerEvents=0;fontSize=12;" vertex="1" parent="1">
          <mxGeometry x="460" y="130" width="100" height="25" as="geometry" />
        </mxCell>
        <mxCell id="-LZOTVDOO-5ZrNgNkCKs-63" value="电网规划" style="rounded=0;whiteSpace=wrap;html=1;dashed=1;dashPattern=1 1;hachureGap=4;pointerEvents=0;fontSize=12;" vertex="1" parent="1">
          <mxGeometry x="460" y="160" width="100" height="25" as="geometry" />
        </mxCell>
        <mxCell id="-LZOTVDOO-5ZrNgNkCKs-64" value="规划库管理" style="rounded=0;whiteSpace=wrap;html=1;dashed=1;dashPattern=1 1;hachureGap=4;pointerEvents=0;fontSize=12;" vertex="1" parent="1">
          <mxGeometry x="460" y="192.5" width="100" height="25" as="geometry" />
        </mxCell>
        <mxCell id="-LZOTVDOO-5ZrNgNkCKs-65" value="项目后评价" style="rounded=0;whiteSpace=wrap;html=1;dashed=1;dashPattern=1 1;hachureGap=4;pointerEvents=0;fontSize=12;" vertex="1" parent="1">
          <mxGeometry x="460" y="225" width="100" height="25" as="geometry" />
        </mxCell>
        <mxCell id="-LZOTVDOO-5ZrNgNkCKs-66" value="&lt;font style=&quot;font-size: 24px&quot;&gt;&lt;b&gt;......&lt;/b&gt;&lt;/font&gt;" style="rounded=0;whiteSpace=wrap;html=1;dashed=1;dashPattern=1 1;hachureGap=4;pointerEvents=0;fontSize=12;verticalAlign=bottom;" vertex="1" parent="1">
          <mxGeometry x="460" y="260" width="100" height="25" as="geometry" />
        </mxCell>
        <mxCell id="-LZOTVDOO-5ZrNgNkCKs-67" value="&lt;font style=&quot;font-size: 24px&quot;&gt;&lt;b&gt;......&lt;/b&gt;&lt;/font&gt;" style="rounded=0;whiteSpace=wrap;html=1;dashed=1;dashPattern=1 1;hachureGap=4;pointerEvents=0;fontSize=12;verticalAlign=bottom;" vertex="1" parent="1">
          <mxGeometry x="160" y="260" width="100" height="25" as="geometry" />
        </mxCell>
      </root>
    </mxGraphModel>
  </diagram>
</mxfile>
